<svg width="585" height="24" viewBox="0 0 585 24" fill="none" xmlns="http://www.w3.org/2000/svg">
<path d="M90 11H120V13H90V11Z" fill="#5AB963"/>
<path d="M10.832 9.824C10.832 10.6133 10.6453 11.28 10.272 11.824C9.89867 12.3573 9.38667 12.7627 8.736 13.04C8.096 13.3173 7.34933 13.456 6.496 13.456H4.096C3.97867 13.456 3.92 13.5147 3.92 13.632V17.632C3.92 17.8773 3.78133 18 3.504 18H1.456C1.328 18 1.23733 17.9733 1.184 17.92C1.14133 17.8667 1.12 17.7867 1.12 17.68V6.432C1.12 6.22933 1.20533 6.128 1.376 6.128H6.176C7.02933 6.128 7.808 6.26133 8.512 6.528C9.22667 6.79467 9.792 7.2 10.208 7.744C10.624 8.288 10.832 8.98133 10.832 9.824ZM7.952 9.776C7.952 9.40267 7.872 9.09867 7.712 8.864C7.552 8.61867 7.32267 8.43733 7.024 8.32C6.72533 8.20267 6.384 8.144 6 8.144H4.224C4.02133 8.144 3.92 8.23467 3.92 8.416V11.152C3.92 11.3547 3.99467 11.456 4.144 11.456H6.112C6.67733 11.456 7.12533 11.3067 7.456 11.008C7.78667 10.7093 7.952 10.2987 7.952 9.776ZM16.565 17.184C16.2343 17.4827 15.861 17.7227 15.445 17.904C15.0397 18.0747 14.5703 18.16 14.037 18.16C13.2263 18.16 12.5863 17.9413 12.117 17.504C11.6583 17.0667 11.429 16.5067 11.429 15.824C11.429 15.2267 11.6157 14.704 11.989 14.256C12.3623 13.808 12.8957 13.4613 13.589 13.216C14.2823 12.96 15.109 12.8213 16.069 12.8L16.629 12.752C16.693 12.752 16.7517 12.736 16.805 12.704C16.8583 12.672 16.885 12.6133 16.885 12.528V12.192C16.885 11.7867 16.7677 11.472 16.533 11.248C16.2983 11.0133 15.9623 10.896 15.525 10.896C15.205 10.896 14.8957 10.9707 14.597 11.12C14.309 11.2587 14.0637 11.504 13.861 11.856C13.829 11.9307 13.7917 11.9787 13.749 12C13.7063 12.0213 13.6263 12.0213 13.509 12L11.909 11.632C11.845 11.6107 11.797 11.5787 11.765 11.536C11.7437 11.4827 11.765 11.376 11.829 11.216C12.0957 10.5867 12.5543 10.1227 13.205 9.824C13.8663 9.51467 14.677 9.36 15.637 9.36C16.5223 9.36 17.2263 9.472 17.749 9.696C18.2717 9.92 18.6503 10.2347 18.885 10.64C19.1197 11.0347 19.237 11.4987 19.237 12.032V17.648C19.237 17.776 19.2157 17.8667 19.173 17.92C19.1303 17.9733 19.0503 18 18.933 18H17.285C17.1677 18 17.0823 17.9573 17.029 17.872C16.9863 17.7867 16.9597 17.68 16.949 17.552L16.917 17.2C16.8957 17.008 16.7783 17.0027 16.565 17.184ZM16.885 14.224C16.885 14.0427 16.805 13.952 16.645 13.952L16.197 13.984C15.9197 13.9947 15.6423 14.0373 15.365 14.112C15.0877 14.176 14.837 14.272 14.613 14.4C14.389 14.5173 14.2023 14.672 14.053 14.864C13.9143 15.0453 13.845 15.2587 13.845 15.504C13.845 15.824 13.957 16.08 14.181 16.272C14.405 16.4533 14.7143 16.544 15.109 16.544C15.3757 16.544 15.6103 16.5013 15.813 16.416C16.0263 16.3307 16.2077 16.2293 16.357 16.112C16.517 15.9733 16.645 15.8347 16.741 15.696C16.837 15.5573 16.885 15.4133 16.885 15.264V14.224ZM21.3566 18C21.2393 18 21.154 17.9733 21.1006 17.92C21.0473 17.8667 21.0206 17.7867 21.0206 17.68V9.824C21.0206 9.62133 21.106 9.52 21.2766 9.52H23.1486C23.3193 9.52 23.4046 9.61067 23.4046 9.792V10.736C23.4046 10.8 23.426 10.8427 23.4686 10.864C23.522 10.8747 23.5753 10.848 23.6286 10.784C23.842 10.496 24.082 10.2453 24.3486 10.032C24.626 9.81867 24.9086 9.65333 25.1966 9.536C25.4846 9.41867 25.7566 9.36 26.0126 9.36C26.3966 9.36 26.5886 9.45067 26.5886 9.632V11.488C26.5886 11.6587 26.5086 11.728 26.3486 11.696C26.1566 11.6427 25.9593 11.6107 25.7566 11.6C25.554 11.5787 25.378 11.568 25.2286 11.568C25.0366 11.568 24.834 11.6053 24.6206 11.68C24.418 11.7547 24.2313 11.8613 24.0606 12C23.89 12.1387 23.7513 12.288 23.6446 12.448C23.538 12.608 23.4846 12.7787 23.4846 12.96V17.632C23.4846 17.8773 23.346 18 23.0686 18H21.3566ZM31.4011 11.216C31.2838 11.216 31.2251 11.28 31.2251 11.408V15.264C31.2251 15.6267 31.3105 15.888 31.4811 16.048C31.6518 16.1973 31.9238 16.272 32.2971 16.272H33.1611C33.2358 16.272 33.2945 16.2987 33.3371 16.352C33.3798 16.4053 33.4011 16.4693 33.4011 16.544L33.3851 17.52C33.3851 17.7227 33.2678 17.8507 33.0331 17.904C32.8411 17.9253 32.6331 17.9467 32.4091 17.968C32.1958 17.9787 31.9771 17.9893 31.7531 18C31.5398 18 31.3318 18 31.1291 18C30.4038 18 29.8278 17.8293 29.4011 17.488C28.9745 17.136 28.7611 16.6187 28.7611 15.936V11.456C28.7611 11.296 28.6918 11.216 28.5531 11.216H27.5771C27.3745 11.216 27.2731 11.1253 27.2731 10.944V9.76C27.2731 9.6 27.3691 9.52 27.5611 9.52H28.6651C28.7611 9.52 28.8145 9.46133 28.8251 9.344L29.0491 6.912C29.0598 6.73067 29.1398 6.64 29.2891 6.64H31.0331C31.2038 6.64 31.2891 6.74133 31.2891 6.944V9.344C31.2891 9.45067 31.3425 9.504 31.4491 9.504H33.1291C33.3211 9.504 33.4171 9.58933 33.4171 9.76V10.944C33.4171 11.1253 33.3105 11.216 33.0971 11.216H31.4011ZM35.5234 20.64C35.1927 20.64 34.9527 20.624 34.8034 20.592C34.654 20.56 34.5794 20.4747 34.5794 20.336V19.104C34.5794 19.04 34.6114 18.9813 34.6754 18.928C34.7394 18.8747 34.862 18.848 35.0434 18.848H36.1314C36.334 18.848 36.5154 18.8 36.6754 18.704C36.846 18.608 36.9794 18.4907 37.0754 18.352C37.182 18.2133 37.2567 18.064 37.2994 17.904C37.342 17.744 37.3314 17.6 37.2674 17.472L34.1954 9.904C34.1527 9.808 34.1527 9.72267 34.1954 9.648C34.2487 9.56267 34.334 9.52 34.4514 9.52H36.4674C36.5527 9.52 36.6274 9.54667 36.6914 9.6C36.7554 9.64267 36.798 9.70667 36.8194 9.792L38.5954 14.56C38.6274 14.656 38.67 14.7093 38.7234 14.72C38.7767 14.72 38.8247 14.6613 38.8674 14.544L40.6274 9.776C40.67 9.70133 40.718 9.64267 40.7714 9.6C40.8247 9.54667 40.894 9.52 40.9794 9.52H42.3554C42.462 9.52 42.5367 9.56267 42.5794 9.648C42.622 9.72267 42.622 9.80267 42.5794 9.888L39.2994 18C39.0754 18.5547 38.8407 19.0027 38.5954 19.344C38.3607 19.696 38.0994 19.9627 37.8114 20.144C37.5234 20.336 37.1927 20.464 36.8194 20.528C36.4567 20.6027 36.0247 20.64 35.5234 20.64ZM52.4268 18.16C51.2961 18.16 50.3201 17.92 49.4988 17.44C48.6774 16.9493 48.0428 16.2507 47.5948 15.344C47.1574 14.4373 46.9388 13.36 46.9388 12.112C46.9388 10.8427 47.1628 9.74933 47.6108 8.832C48.0694 7.91467 48.7094 7.21067 49.5308 6.72C50.3521 6.21867 51.3174 5.968 52.4268 5.968C53.5361 5.968 54.4961 6.21867 55.3068 6.72C56.1281 7.21067 56.7628 7.91467 57.2108 8.832C57.6588 9.73867 57.8828 10.8267 57.8828 12.096C57.8828 13.344 57.6588 14.4213 57.2108 15.328C56.7734 16.2347 56.1441 16.9333 55.3228 17.424C54.5014 17.9147 53.5361 18.16 52.4268 18.16ZM52.4268 16.192C53.3014 16.192 53.9414 15.8773 54.3468 15.248C54.7521 14.608 54.9548 13.568 54.9548 12.128C54.9548 10.656 54.7468 9.58933 54.3308 8.928C53.9254 8.256 53.2908 7.92 52.4268 7.92C51.5521 7.92 50.9068 8.256 50.4908 8.928C50.0748 9.6 49.8668 10.6667 49.8668 12.128C49.8668 13.5573 50.0694 14.592 50.4748 15.232C50.8908 15.872 51.5414 16.192 52.4268 16.192ZM59.8254 18C59.6014 18 59.4894 17.8933 59.4894 17.68V9.824C59.4894 9.62133 59.5747 9.52 59.7454 9.52H61.6814C61.8414 9.52 61.9214 9.61067 61.9214 9.792V10.576C61.9214 10.64 61.9374 10.6827 61.9694 10.704C62.0014 10.7253 62.0494 10.704 62.1134 10.64C62.3907 10.384 62.668 10.16 62.9454 9.968C63.2227 9.776 63.516 9.62667 63.8254 9.52C64.1347 9.41333 64.4654 9.36 64.8174 9.36C65.596 9.36 66.2094 9.58933 66.6574 10.048C67.116 10.5067 67.3454 11.12 67.3454 11.888V17.616C67.3454 17.872 67.2174 18 66.9614 18H65.1854C65.0787 18 64.9987 17.9787 64.9454 17.936C64.9027 17.8827 64.8814 17.7973 64.8814 17.68V12.272C64.8814 11.9093 64.78 11.632 64.5774 11.44C64.3854 11.2373 64.0974 11.136 63.7134 11.136C63.4894 11.136 63.2814 11.1733 63.0894 11.248C62.8974 11.3227 62.7107 11.4347 62.5294 11.584C62.348 11.7227 62.156 11.904 61.9534 12.128V17.632C61.9534 17.8773 61.8147 18 61.5374 18H59.8254Z" fill="#5AB963"/>
</svg>
